<?xml version="1.0" ?><svg enable-background="new 0 0 24 24" id="Layer_1" version="1.1" viewBox="0 0 24 24" xml:space="preserve" xmlns="http://www.w3.org/2000/svg" xmlns:xlink="http://www.w3.org/1999/xlink"><path d="M23.2879639,8H23.5C23.7763672,8,24,7.7763672,24,7.5v-1C24,6.2236328,23.7763672,6,23.5,6H23  c-0.0172119,0-0.0317383,0.0080566-0.0485229,0.0097656c-0.145813,0.006897-0.291687,0.0375366-0.4290161,0.1113281  c-1.3115234,0.7124023-2.3720703,2.0991211-3.6015625,3.7050781c-0.1503906,0.1967773-0.3027344,0.3955078-0.4560547,0.5952148  C16.3896484,8.0849609,13.7080078,6,9.6083984,6C3.609375,6,0,10.7578125,0,12s3.609375,6,9.6083984,6  c4.0996094,0,6.78125-2.0849609,8.8564453-4.4213867c0.1533203,0.199707,0.3056641,0.3984375,0.4560547,0.5952148  c1.2294922,1.605957,2.2900391,2.9926758,3.6015625,3.7050781C22.6748047,17.9609375,22.8378906,18,22.9990234,18  c0,0,0.0004272-0.000061,0.0006104-0.000061L23,18h0.5c0.2763672,0,0.5-0.2236328,0.5-0.5v-1c0-0.2763672-0.2236328-0.5-0.5-0.5  h-0.2120361c-0.8808594-0.5692749-1.8041992-1.7681885-2.7781982-3.0415039  C20.2695313,12.6450195,20.0244141,12.3242188,19.7705078,12c0.2539063-0.3242188,0.4990234-0.6450195,0.7392578-0.9584961  C21.4837646,9.7681885,22.4071045,8.5692749,23.2879639,8z M9.6083984,16c-4.46875,0-6.9482422-3.0263672-7.5244141-4  c0.5761719-0.9736328,3.0556641-4,7.5244141-4c3.4472656,0,5.7216797,1.8515625,7.579092,4  C15.3300781,14.1484375,13.0556641,16,9.6083984,16z" fill="#303C42"/><g/><g/><g/><g/><g/><g/><g/><g/><g/><g/><g/><g/><g/><g/><g/></svg>