<?xml version="1.0" ?><!DOCTYPE svg  PUBLIC '-//W3C//DTD SVG 1.1//EN'  'http://www.w3.org/Graphics/SVG/1.1/DTD/svg11.dtd'><svg height="512px" id="Layer_1" style="enable-background:new 0 0 512 512;" version="1.1" viewBox="0 0 512 512" width="512px" xml:space="preserve" xmlns="http://www.w3.org/2000/svg" xmlns:xlink="http://www.w3.org/1999/xlink"><g><path d="M113.802,213.977c4.45-3.56,9.295-6.824,14.338-9.79c5.043-2.966,10.284-5.439,15.624-7.515   l-42.224-73.077c14.635,3.857,29.27,7.812,43.905,11.768c9.098,2.373,18.69-3.065,21.162-12.262   c2.472-9.196-3.066-18.69-12.262-21.161c-26.501-7.12-52.904-14.24-79.405-21.36c-10.779-3.56-25.908,4.845-27.391,15.723   c-7.12,26.402-14.24,52.904-21.359,79.405c-2.473,9.197,3.065,18.689,12.262,21.161c9.197,2.473,18.689-3.065,21.161-12.262   c3.956-14.635,7.911-29.369,11.867-44.004L113.802,213.977z" style="fill:#141515;"/><path d="M291.5,252.938c-1.978-3.461-4.153-6.724-6.329-9.889c-9.592,6.625-17.997,14.536-25.908,23.139   c0.89,1.286,1.681,2.571,2.473,3.857c23.535,40.84,9.592,92.952-31.248,116.388c-40.741,23.535-92.854,9.592-116.388-31.149   c-23.535-40.741-9.493-92.854,31.248-116.388c25.71-14.833,55.969-14.734,80.691-2.472c7.812-8.999,16.415-17.404,25.908-24.722   c-36.39-23.041-83.954-25.513-123.805-2.571c-57.156,33.028-76.735,106.203-43.806,163.36   c33.028,57.155,106.203,76.735,163.359,43.707C304.85,383.171,324.528,310.094,291.5,252.938z" style="fill:#141515;"/><path d="M383.859,209.131c-39.653-22.942-87.118-20.47-123.41,2.373   c-15.03,10.68-30.556,25.216-39.851,41.434c-24.326,42.026-20.172,92.755,6.527,129.738c0.297-0.099,0.593-0.297,0.89-0.494   c10.186-5.835,18.591-13.547,25.018-22.546c-17.206-26.106-19.381-60.617-2.67-89.591c6.526-11.273,25.018-26.699,35.895-33.72   c24.722-12.163,54.783-12.262,80.493,2.571c40.741,23.535,54.684,75.647,31.149,116.388   c-22.645,39.159-71.692,53.596-111.642,33.72c-7.218,9.394-15.822,17.799-25.809,24.919c1.286,0.791,2.571,1.582,3.856,2.274   c57.255,33.028,130.332,13.448,163.359-43.707C460.694,315.335,441.115,242.159,383.859,209.131z" style="fill:#141515;"/><path d="M485.81,175.708c-7.119-26.501-14.14-53.003-21.26-79.405   c-1.582-10.878-16.711-19.283-27.391-15.723c-26.501,7.119-53.003,14.239-79.504,21.36c-9.197,2.472-14.635,11.965-12.164,21.161   c2.473,9.196,11.965,14.635,21.162,12.262c14.635-3.956,29.172-7.911,43.807-11.768l-42.125,73.077   c5.241,2.076,10.482,4.549,15.525,7.515c5.142,2.967,9.889,6.23,14.437,9.79l42.323-73.374   c3.955,14.635,7.812,29.369,11.768,44.004c2.472,9.196,12.064,14.734,21.161,12.262   C482.745,194.397,488.283,184.904,485.81,175.708z" style="fill:#141515;"/></g></svg>