<?xml version="1.0" ?><!DOCTYPE svg  PUBLIC '-//W3C//DTD SVG 1.0//EN'  'http://www.w3.org/TR/2001/REC-SVG-20010904/DTD/svg10.dtd'><svg enable-background="new 0 0 16 16" height="100px" id="Layer_1" version="1.0" viewBox="0 0 16 16" width="100px" xml:space="preserve" xmlns="http://www.w3.org/2000/svg" xmlns:xlink="http://www.w3.org/1999/xlink"><g><defs><rect height="16" id="SVGID_1_" width="16"/></defs><path d="M12.253,5.001h-1.544l0.23-1.02c0.739-0.091,1.313-0.716,1.313-1.48   c0-0.531-0.278-0.996-0.695-1.262l0.147-0.656L10.73,0.362l-0.148,0.657C9.835,1.105,9.253,1.731,9.253,2.501   c0,0.537,0.284,1.004,0.708,1.27l-0.277,1.23h-6.43H2l0.278,1.221L4.2,14.698c0.132,0.734,0.804,1.303,1.553,1.303h4   c0.749,0,1.421-0.568,1.553-1.303l1.923-8.476l0.277-1.221H12.253z M9.459,6.001l-0.678,3H3.933l-0.68-3H9.459z M5.182,14.505   L4.16,10.001h4.396l-1.128,5H5.753C5.479,15.001,5.221,14.778,5.182,14.505 M10.324,14.505c-0.039,0.273-0.297,0.496-0.571,0.496   H8.454l1.128-5h1.764L10.324,14.505z M11.572,9.001H9.807l0.678-3h1.769L11.572,9.001z" fill="#1D1D1B"/></g></svg>