<?xml version="1.0" ?><svg enable-background="new 0 0 32 32" id="Glyph" version="1.1" viewBox="0 0 32 32" xml:space="preserve" xmlns="http://www.w3.org/2000/svg" xmlns:xlink="http://www.w3.org/1999/xlink"><path d="M15,3c0-0.828,1-2,1-2s1,1.172,1,2s-0.448,1-1,1S15,3.828,15,3z"/><path d="M11,5c0-0.828,1-2,1-2s1,1.172,1,2s-0.448,1-1,1S11,5.828,11,5z"/><path d="M7,5c0-0.828,1-2,1-2s1,1.172,1,2S8.552,6,8,6S7,5.828,7,5z"/><path d="M3,5c0-0.828,1-2,1-2s1,1.172,1,2S4.552,6,4,6S3,5.828,3,5z"/><path d="M19,5c0-0.828,1-2,1-2s1,1.172,1,2s-0.448,1-1,1S19,5.828,19,5z"/><path d="M23,5c0-0.828,1-2,1-2s1,1.172,1,2s-0.448,1-1,1S23,5.828,23,5z"/><path d="M27,5c0-0.828,1-2,1-2s1,1.172,1,2s-0.448,1-1,1S27,5.828,27,5z"/><path d="M29,8v2c0,6.831-5.299,12.436-12,12.949V27h1c1.657,0,3,1.343,3,3c-3.807,0-1.72,0-10,0c0-1.657,1.343-3,3-3h1v-4.051  C8.299,22.436,3,16.831,3,10V8h2v2c0,5.728,4.402,10.442,10,10.949v-2.008c-4.493-0.5-8-4.317-8-8.941V8h2v2  c0,3.519,2.613,6.432,6,6.92v-2.021c-2.279-0.465-4-2.484-4-4.899V8h2v2c0,1.302,0.839,2.402,2,2.816V6h2v6.816  c1.161-0.414,2-1.514,2-2.816V8h2v2c0,2.414-1.721,4.434-4,4.899v2.021c3.387-0.488,6-3.401,6-6.92V8h2v2  c0,4.624-3.507,8.441-8,8.941v2.008C22.598,20.442,27,15.728,27,10V8H29z"/></svg>